# xmcd
#
# Track frame offsets: 
#        150
#        23278
#        46228
#        66294
#        93958
#        119135
#        138694
#        163070
#        181143
#        201611
#        225267
#        245011
#        267335
#
# Disc length: 4608 seconds
#
# Revision: 0
# Processed by: cddbd v1.5.2PL0 Copyright (c) Steve Scherf et al.
# Submitted via: ExactAudioCopy v1.0b3
#
DISCID=b711fe0d
DTITLE=Vertigo Steps - The Melanchoy Hour
DYEAR=2010
DGENRE=Progressive Metal
TTITLE0=The Spider and The Weaving
TTITLE1=Vacant Stare
TTITLE2=Desperation Lair
TTITLE3=INhale
TTITLE4=Silentground
TTITLE5=Under Burning Waters
TTITLE6=Reel World
TTITLE7=Through Sham Lenses
TTITLE8=Red Haze
TTITLE9=Redemption River, Dividing Ocean
TTITLE10=Sweet, Sweet Rain
TTITLE11=Burial Light
TTITLE12=INhale
EXTD=
EXTT0=
EXTT1=
EXTT2=
EXTT3=
EXTT4=
EXTT5=
EXTT6=
EXTT7=
EXTT8=
EXTT9=
EXTT10=
EXTT11=
EXTT12=
PLAYORDER=
